<svg xmlns:xlink="http://www.w3.org/1999/xlink" xmlns="http://www.w3.org/2000/svg" width="52" height="52" x="0.0" y="0.0" viewBox="0 0 52 52" fill="#D75E55"><path fill="#D75E55" fill-rule="evenodd" d="M41.425 44.023v-3.275l3.389-3.677v3.371a24.18 24.18 0 0 1-3.389 3.581zM6.719 40.442v-3.359l3.389 3.677v3.263a24.175 24.175 0 0 1-3.389-3.581zm5.141.481l3.331-3.766v3.859l-3.33 3.82V40.923zM6.72 30.136l3.388 3.493v4.544l-3.389-3.676v-4.361zm3.388.975l-3.389-3.493v-4.13l3.389 3.68v3.943zm1.752 2.523l3.331-3.433v4.31l-3.33 3.766v-4.643zm3.331-10.146v4.196l-3.33 3.433V27.11l3.33-3.622zm6.369 4.514l3.33 3.614v4.141l-3.33-3.797v-3.958zm3.33-6.036l-3.33-3.433v-4.101l3.33 3.622v3.912zm5.083-3.383l-3.33 3.434v-4.021l3.33-3.623v4.21zm-3.33 13.234l.002.003 3.328-3.764V31.9l-3.33 3.798v-3.882zm-1.753-2.788l-3.33-3.613V21.05l3.33 3.433v4.545zm1.752-4.495l3.33-3.433v4.308l-3.33 3.768v-4.643zm14.783 9.086l3.389-3.493v4.358l-3.389 3.677V33.62zm-1.753-2.554l-3.33-3.433v-4.145l3.33 3.622v3.956zm0 7.234l-3.33-3.768v-4.381l3.33 3.432V38.3zm5.142-14.812v4.121l-3.389 3.493V27.17l3.389-3.681zm-5.142 21.348l-3.33-3.82v-3.838l3.329 3.767.001-.001v3.892zM25.766 1.753c13.263 0 24.014 10.809 24.014 24.072a23.9 23.9 0 0 1-3.213 11.995V19.047l-5.987 6.444-5.991-6.502v22.728l3.933 4.45a23.876 23.876 0 0 1-11.88 3.65V38.384l5.083-5.783V9.932l-5.96 6.47-5.958-6.47v22.67l5.083 5.85v11.364a23.878 23.878 0 0 1-11.88-3.649l3.934-4.45V18.989l-5.99 6.502-5.987-6.444V37.82a23.895 23.895 0 0 1-3.214-11.995c0-13.263 10.75-24.072 24.013-24.072zm0-1.753C11.568 0 0 11.627 0 25.825 0 40.023 11.568 51.59 25.766 51.59c14.198 0 25.767-11.627 25.767-25.825C51.533 11.57 39.964 0 25.766 0z"></path></svg>