<svg version="1.2" baseProfile="tiny-ps" xmlns="http://www.w3.org/2000/svg" viewBox="0 0 102 118" width="102" height="118">
	<title>svgexport-37-svg</title>
	<path id="Layer" fill="#92ba86" d="M101.56 29.32L101.56 87.95L50.78 117.27L0 87.95L0 29.32L50.78 0L101.56 29.32Z" />
	<g id="Layer">
		<g id="Layer">
			<path id="Layer" fill-rule="evenodd" fill='#ffffff' d="M72.39 44.3C72.39 56.32 62.6 66.15 50.58 66.15C38.57 66.15 28.78 56.37 28.78 44.35C28.78 32.34 38.57 22.5 50.58 22.5C62.6 22.5 72.39 32.29 72.39 44.3ZM50.58 23.98C39.36 23.98 30.26 33.13 30.26 44.35C30.26 45.24 30.32 46.12 30.44 47C30.55 47.88 30.72 48.75 30.95 49.61C31.18 50.46 31.47 51.3 31.81 52.12C32.15 52.94 32.54 53.74 32.98 54.5L32.98 38.62L38.05 44.07L43.12 38.57L43.12 57.8L39.79 61.56C40.54 62.04 41.32 62.46 42.13 62.83C42.93 63.2 43.76 63.51 44.61 63.77C45.46 64.03 46.32 64.24 47.2 64.39C48.07 64.53 48.95 64.62 49.84 64.65L49.84 55.04L45.54 50.09L45.54 30.9L50.58 36.38L55.62 30.9L55.62 50.09L51.32 54.98L51.32 64.65C52.21 64.62 53.09 64.53 53.97 64.39C54.84 64.24 55.71 64.04 56.55 63.77C57.4 63.51 58.23 63.2 59.04 62.83C59.84 62.46 60.63 62.04 61.38 61.56L58.05 57.8L58.05 38.57L63.12 44.07L68.18 38.62L68.18 54.5C68.63 53.74 69.02 52.94 69.36 52.12C69.7 51.3 69.98 50.46 70.21 49.61C70.44 48.75 70.62 47.88 70.73 47C70.85 46.12 70.9 45.24 70.9 44.35C70.9 33.13 61.81 23.98 50.58 23.98ZM38.82 57.13L38.82 60.44L41.63 57.21L41.63 53.94L38.82 57.13L38.82 57.13ZM34.47 48L34.47 51.69L37.33 54.8L37.33 50.96L34.47 48L34.47 48ZM37.33 48.83L37.33 45.49L34.47 42.37L34.47 45.87L37.33 48.83ZM38.82 50.96L38.82 54.89L41.63 51.7L41.63 48.06L38.82 50.96L38.82 50.96ZM38.82 45.44L38.82 48.83L41.63 45.93L41.63 42.37L38.82 45.44ZM47.02 46.19L47.02 49.54L49.84 52.76L49.84 49.25L47.02 46.19ZM49.84 37.78L47.02 34.71L47.02 38.18L49.84 41.09L49.84 37.78ZM54.14 34.66L51.32 37.73L51.32 41.13L54.14 38.22L54.14 34.66ZM51.32 52.71L54.14 49.49L54.14 46.24L51.33 49.43L51.32 49.42L51.32 52.71ZM49.84 43.22L47.02 40.31L47.02 44.01L49.84 47.06L49.84 43.22ZM51.32 43.26L51.32 47.19L54.14 44L54.14 40.36L51.32 43.26ZM63.83 54.79L66.7 51.68L66.7 47.99L63.83 50.95L63.83 54.79ZM62.35 45.44L59.53 42.37L59.53 45.88L62.35 48.79L62.35 45.44ZM62.35 50.92L59.53 48.01L59.53 51.72L62.35 54.91L62.35 50.92ZM66.7 42.38L63.83 45.49L63.83 48.82L66.7 45.86L66.7 42.38ZM62.35 60.44L62.35 57.15L62.35 57.15L59.53 53.96L59.53 57.21L62.35 60.44ZM63.83 59.75C64.1 59.52 64.35 59.29 64.61 59.05C64.86 58.81 65.1 58.56 65.34 58.31C65.58 58.06 65.82 57.8 66.04 57.53C66.27 57.27 66.49 57 66.7 56.72L66.7 53.87L63.83 56.98L63.83 59.75ZM34.47 56.72C34.68 57 34.9 57.27 35.12 57.53C35.35 57.8 35.58 58.06 35.82 58.31C36.06 58.56 36.31 58.81 36.56 59.05C36.81 59.29 37.07 59.52 37.33 59.75L37.33 56.99L34.47 53.88L34.47 56.72Z" />
		</g>
	</g>
	<path id="Layer" fill="#ffffff" d="M37.9 87.77L37.48 89.03C36.81 88.9 36.19 88.7 35.63 88.43C35.07 88.16 34.56 87.86 34.09 87.53C33.62 87.2 33.2 86.86 32.83 86.5C32.46 86.13 32.13 85.78 31.85 85.45L31.85 85.45L29.11 82.06C28.79 81.69 28.45 81.24 28.09 80.72C27.72 80.19 27.38 79.68 27.06 79.18L27.06 79.18C27.12 79.65 27.17 80.14 27.22 80.65C27.27 81.16 27.29 81.63 27.29 82.06L27.29 82.06L27.29 94.77L25.58 94.77L25.58 75.37L26.11 75.37L33.56 84.86C33.69 85.07 33.89 85.29 34.15 85.53L34.15 85.53L42.52 75.37L43.05 75.37L43.05 94.77L41.34 94.77L41.34 82.06C41.34 81.59 41.36 81.07 41.41 80.48C41.46 79.89 41.51 79.36 41.57 78.87L41.57 78.87C41.18 79.41 40.77 79.97 40.34 80.56C39.91 81.15 39.51 81.65 39.16 82.06L39.16 82.06L35.35 86.57C35.72 86.83 36.12 87.07 36.54 87.28C36.96 87.49 37.41 87.66 37.9 87.77L37.9 87.77ZM54.45 76.88L54.45 76.88C53.85 76.88 53.37 76.89 53.02 76.92C52.67 76.95 52.36 76.98 52.11 77.01C51.86 77.04 51.62 77.07 51.4 77.1C51.17 77.14 50.91 77.16 50.61 77.16L50.61 77.16L50.61 94.77L48.9 94.77L48.9 77.1C48.31 77.01 47.74 76.84 47.21 76.6C46.68 76.36 46.22 75.98 45.85 75.45L45.85 75.45L46.78 74.5C47.17 74.87 47.63 75.15 48.18 75.34C48.72 75.53 49.36 75.62 50.11 75.62L50.11 75.62C50.54 75.62 50.9 75.61 51.2 75.58C51.5 75.55 51.8 75.52 52.1 75.48C52.39 75.44 52.72 75.41 53.09 75.38C53.46 75.35 53.94 75.34 54.53 75.34L54.53 75.34C55.41 75.34 56.21 75.49 56.93 75.8C57.64 76.11 58.25 76.54 58.76 77.09C59.27 77.64 59.66 78.29 59.94 79.02C60.22 79.76 60.36 80.56 60.36 81.42L60.36 81.42C60.36 82.29 60.22 83.1 59.94 83.84C59.66 84.57 59.27 85.22 58.76 85.77C58.25 86.32 57.64 86.75 56.93 87.06C56.21 87.37 55.41 87.52 54.53 87.52L54.53 87.52C54.18 87.52 53.85 87.52 53.55 87.52C53.25 87.52 52.99 87.51 52.77 87.49L52.77 87.49C52.51 87.49 52.27 87.48 52.04 87.46L52.04 87.46L52.04 85.92C52.27 85.94 52.51 85.95 52.77 85.95L52.77 85.95C52.99 85.97 53.25 85.98 53.54 85.98C53.83 85.98 54.13 85.98 54.45 85.98L54.45 85.98C55.08 85.98 55.66 85.87 56.18 85.64C56.71 85.42 57.16 85.11 57.53 84.71C57.9 84.3 58.19 83.82 58.4 83.26C58.6 82.7 58.7 82.09 58.7 81.42L58.7 81.42C58.7 80.75 58.6 80.13 58.4 79.58C58.19 79.03 57.9 78.56 57.53 78.15C57.16 77.75 56.71 77.44 56.18 77.22C55.66 76.99 55.08 76.88 54.45 76.88ZM70.07 76.88L70.07 76.88C69.48 76.88 69 76.89 68.64 76.92C68.29 76.95 67.98 76.98 67.73 77.01C67.48 77.04 67.25 77.07 67.02 77.1C66.79 77.14 66.53 77.16 66.24 77.16L66.24 77.16L66.24 94.77L64.53 94.77L64.53 77.1C63.93 77.01 63.36 76.84 62.83 76.6C62.3 76.36 61.85 75.98 61.48 75.45L61.48 75.45L62.4 74.5C62.79 74.87 63.26 75.15 63.8 75.34C64.34 75.53 64.98 75.62 65.73 75.62L65.73 75.62C66.16 75.62 66.53 75.61 66.82 75.58C67.12 75.55 67.42 75.52 67.72 75.48C68.02 75.44 68.35 75.41 68.71 75.38C69.08 75.35 69.56 75.34 70.16 75.34L70.16 75.34C71.03 75.34 71.83 75.49 72.55 75.8C73.27 76.11 73.88 76.54 74.38 77.09C74.89 77.64 75.28 78.29 75.56 79.02C75.84 79.76 75.98 80.56 75.98 81.42L75.98 81.42C75.98 82.29 75.84 83.1 75.56 83.84C75.28 84.57 74.89 85.22 74.38 85.77C73.88 86.32 73.27 86.75 72.55 87.06C71.83 87.37 71.03 87.52 70.16 87.52L70.16 87.52C69.8 87.52 69.47 87.52 69.18 87.52C68.88 87.52 68.62 87.51 68.39 87.49L68.39 87.49C68.13 87.49 67.89 87.48 67.66 87.46L67.66 87.46L67.66 85.92C67.89 85.94 68.13 85.95 68.39 85.95L68.39 85.95C68.62 85.97 68.87 85.98 69.16 85.98C69.45 85.98 69.76 85.98 70.07 85.98L70.07 85.98C70.7 85.98 71.28 85.87 71.81 85.64C72.33 85.42 72.78 85.11 73.15 84.71C73.52 84.3 73.81 83.82 74.02 83.26C74.23 82.7 74.33 82.09 74.33 81.42L74.33 81.42C74.33 80.75 74.23 80.13 74.02 79.58C73.81 79.03 73.52 78.56 73.15 78.15C72.78 77.75 72.33 77.44 71.81 77.22C71.28 76.99 70.7 76.88 70.07 76.88Z" />
</svg>