<svg xmlns:xlink="http://www.w3.org/1999/xlink" xmlns="http://www.w3.org/2000/svg" viewBox="0 0 194 35" width="194" height="35" class=""><path fill="#92BA86" fill-rule="nonzero" d="M10.56 11.02L10.20 12.10Q9.34 11.93 8.62 11.58Q7.90 11.23 7.30 10.81Q6.70 10.39 6.22 9.92Q5.74 9.46 5.38 9.02L5.38 9.02L3.02 6.12Q2.62 5.64 2.15 4.97Q1.68 4.30 1.27 3.65L1.27 3.65Q1.34 4.25 1.40 4.91Q1.46 5.57 1.46 6.12L1.46 6.12L1.46 17.02L0 17.02L0 0.38L0.46 0.38L6.84 8.52Q7.01 8.78 7.34 9.10L7.34 9.10L14.52 0.38L14.98 0.38L14.98 17.02L13.51 17.02L13.51 6.12Q13.51 5.52 13.57 4.76Q13.63 4.01 13.70 3.38L13.70 3.38Q13.20 4.08 12.65 4.84Q12.10 5.59 11.64 6.12L11.64 6.12L8.38 9.98Q8.86 10.32 9.40 10.60Q9.94 10.87 10.56 11.02L10.56 11.02ZM24.43 17.26L24.43 17.26Q23.09 17.26 21.98 16.80Q20.88 16.34 20.10 15.52Q19.32 14.69 18.89 13.56Q18.46 12.43 18.46 11.09L18.46 11.09Q18.46 9.74 18.89 8.60Q19.32 7.46 20.10 6.62Q20.88 5.78 21.98 5.30Q23.09 4.82 24.43 4.82L24.43 4.82Q25.78 4.82 26.87 5.29Q27.96 5.76 28.74 6.59Q29.52 7.42 29.95 8.56Q30.38 9.70 30.38 11.02L30.38 11.02Q30.38 12.36 29.95 13.51Q29.52 14.66 28.74 15.49Q27.96 16.32 26.87 16.79Q25.78 17.26 24.43 17.26ZM24.43 6.07L24.43 6.07Q23.38 6.07 22.54 6.43Q21.70 6.79 21.08 7.44Q20.47 8.09 20.15 9.00Q19.82 9.91 19.82 11.02L19.82 11.02Q19.82 12.14 20.15 13.07Q20.47 13.99 21.08 14.64Q21.70 15.29 22.54 15.65Q23.38 16.01 24.43 16.01L24.43 16.01Q25.46 16.01 26.32 15.64Q27.17 15.26 27.77 14.60Q28.37 13.94 28.69 13.02Q29.02 12.10 29.02 10.97L29.02 10.97Q29.02 9.86 28.69 8.96Q28.37 8.06 27.77 7.42Q27.17 6.77 26.32 6.42Q25.46 6.07 24.43 6.07ZM43.39 17.02L42.12 17.02Q41.74 16.30 41.62 15.40Q41.50 14.50 41.50 13.80L41.50 13.80Q41.50 13.22 41.52 12.72Q41.54 12.22 41.58 11.65Q41.62 11.09 41.65 10.44Q41.69 9.79 41.69 8.95L41.69 8.95Q41.69 7.46 41.02 6.77Q40.34 6.07 38.98 6.07L38.98 6.07Q37.68 6.07 36.79 6.71Q35.90 7.34 35.06 8.50L35.06 8.50L35.06 8.54L35.06 17.02L33.74 17.02L33.74 8.54Q33.74 7.58 33.50 6.89Q33.26 6.19 32.78 5.69L32.78 5.69L33.60 4.90Q34.18 5.30 34.49 5.89Q34.80 6.48 34.92 7.10L34.92 7.10Q35.71 5.95 36.73 5.39Q37.75 4.82 38.98 4.82L38.98 4.82Q41.09 4.82 42.05 5.83Q43.01 6.84 43.01 8.69L43.01 8.69Q43.01 9.55 42.97 10.26Q42.94 10.97 42.90 11.59Q42.86 12.22 42.84 12.79Q42.82 13.37 42.82 13.94L42.82 13.94Q42.82 14.74 42.94 15.46Q43.06 16.18 43.39 17.02L43.39 17.02ZM58.99 4.82L58.99 4.82Q60.22 4.82 61.16 5.30Q62.11 5.78 62.77 6.62Q63.43 7.46 63.77 8.58Q64.10 9.70 64.10 10.99L64.10 10.99Q64.10 12.34 63.71 13.48Q63.31 14.62 62.58 15.46Q61.85 16.30 60.82 16.78Q59.78 17.26 58.51 17.26L58.51 17.26Q57.50 17.26 56.72 17.18Q55.94 17.11 55.39 17.04L55.39 17.04L55.39 23.02L54.07 23.02L54.07 8.54Q54.07 7.58 53.83 6.89Q53.59 6.19 53.11 5.69L53.11 5.69L53.93 4.90Q54.46 5.30 54.76 5.81Q55.06 6.31 55.20 6.91L55.20 6.91Q55.70 5.93 56.70 5.38Q57.70 4.82 58.99 4.82ZM58.99 6.07L58.99 6.07Q58.39 6.07 57.79 6.26Q57.19 6.46 56.69 6.84Q56.18 7.22 55.82 7.80Q55.46 8.38 55.39 9.14L55.39 9.14L55.39 15.79Q55.82 15.84 56.66 15.92Q57.50 16.01 58.49 16.01L58.49 16.01Q59.45 16.01 60.23 15.65Q61.01 15.29 61.57 14.64Q62.14 13.99 62.44 13.08Q62.74 12.17 62.74 11.06L62.74 11.06Q62.74 10.10 62.50 9.19Q62.26 8.28 61.79 7.60Q61.32 6.91 60.62 6.49Q59.93 6.07 58.99 6.07ZM71.02 12.22L68.18 12.22Q68.40 14.09 69.37 15.05Q70.34 16.01 72.22 16.01L72.22 16.01Q73.22 16.01 74.14 15.67Q75.05 15.34 75.96 14.86L75.96 14.86L76.58 15.86Q75.74 16.44 74.63 16.85Q73.51 17.26 72.22 17.26L72.22 17.26Q69.50 17.26 68.12 15.66Q66.74 14.06 66.74 11.09L66.74 11.09Q66.74 9.84 67.12 8.71Q67.49 7.58 68.17 6.72Q68.86 5.86 69.82 5.34Q70.78 4.82 71.95 4.82L71.95 4.82Q72.84 4.82 73.63 5.08Q74.42 5.33 75.01 5.80Q75.60 6.26 75.95 6.95Q76.30 7.63 76.30 8.47L76.30 8.47Q76.30 9.53 75.84 10.25Q75.38 10.97 74.65 11.40Q73.92 11.83 72.97 12.02Q72.02 12.22 71.02 12.22L71.02 12.22ZM71.95 6.00L71.95 6.00Q71.09 6.00 70.38 6.43Q69.67 6.86 69.17 7.56Q68.66 8.26 68.39 9.14Q68.11 10.03 68.11 10.97L68.11 10.97L71.02 10.97Q72.24 10.97 73.01 10.74Q73.78 10.51 74.21 10.15Q74.64 9.79 74.78 9.35Q74.93 8.90 74.93 8.47L74.93 8.47Q74.93 7.34 74.10 6.67Q73.27 6.00 71.95 6.00ZM80.06 13.58L80.06 4.92Q80.06 3.96 79.82 3.26Q79.58 2.57 79.10 2.06L79.10 2.06L79.92 1.27Q80.38 1.61 80.65 2.03Q80.93 2.45 81.10 2.93Q81.26 3.41 81.32 3.91Q81.38 4.42 81.38 4.92L81.38 4.92L81.38 5.06L85.18 5.06L85.18 6.38L81.38 6.38L81.38 13.58Q81.38 14.28 81.53 14.75Q81.67 15.22 81.91 15.49Q82.15 15.77 82.49 15.89Q82.82 16.01 83.18 16.01L83.18 16.01Q83.62 16.01 84.10 15.88Q84.58 15.74 85.01 15.56Q85.44 15.38 85.79 15.18Q86.14 14.98 86.35 14.86L86.35 14.86L86.98 15.86Q86.78 16.01 86.36 16.25Q85.94 16.49 85.39 16.72Q84.84 16.94 84.20 17.10Q83.57 17.26 82.94 17.26L82.94 17.26Q82.37 17.26 81.85 17.08Q81.34 16.90 80.94 16.48Q80.54 16.06 80.30 15.35Q80.06 14.64 80.06 13.58L80.06 13.58ZM88.66 5.69L89.47 4.90Q89.93 5.23 90.20 5.65Q90.48 6.07 90.65 6.55Q90.82 7.03 90.88 7.54Q90.94 8.04 90.94 8.54L90.94 8.54L90.94 17.02L89.62 17.02L89.62 8.54Q89.62 7.58 89.38 6.89Q89.14 6.19 88.66 5.69L88.66 5.69ZM88.97 1.13L88.97 1.13Q88.97 0.65 89.29 0.32Q89.62 0 90.07 0L90.07 0Q90.55 0 90.88 0.32Q91.20 0.65 91.20 1.13L91.20 1.13Q91.20 1.58 90.88 1.91Q90.55 2.23 90.07 2.23L90.07 2.23Q89.62 2.23 89.29 1.91Q88.97 1.58 88.97 1.13ZM95.28 13.58L95.28 4.92Q95.28 3.96 95.04 3.26Q94.80 2.57 94.32 2.06L94.32 2.06L95.14 1.27Q95.59 1.61 95.87 2.03Q96.14 2.45 96.31 2.93Q96.48 3.41 96.54 3.91Q96.60 4.42 96.60 4.92L96.60 4.92L96.60 5.06L100.39 5.06L100.39 6.38L96.60 6.38L96.60 13.58Q96.60 14.28 96.74 14.75Q96.89 15.22 97.13 15.49Q97.37 15.77 97.70 15.89Q98.04 16.01 98.40 16.01L98.40 16.01Q98.83 16.01 99.31 15.88Q99.79 15.74 100.22 15.56Q100.66 15.38 101.00 15.18Q101.35 14.98 101.57 14.86L101.57 14.86L102.19 15.86Q102.00 16.01 101.58 16.25Q101.16 16.49 100.61 16.72Q100.06 16.94 99.42 17.10Q98.78 17.26 98.16 17.26L98.16 17.26Q97.58 17.26 97.07 17.08Q96.55 16.90 96.16 16.48Q95.76 16.06 95.52 15.35Q95.28 14.64 95.28 13.58L95.28 13.58ZM116.83 4.82L116.83 4.82Q118.06 4.82 119.00 5.30Q119.95 5.78 120.61 6.62Q121.27 7.46 121.61 8.58Q121.94 9.70 121.94 10.99L121.94 10.99Q121.94 12.34 121.55 13.48Q121.15 14.62 120.42 15.46Q119.69 16.30 118.66 16.78Q117.62 17.26 116.35 17.26L116.35 17.26Q115.34 17.26 114.56 17.18Q113.78 17.11 113.23 17.04L113.23 17.04L113.23 23.02L111.91 23.02L111.91 8.54Q111.91 7.58 111.67 6.89Q111.43 6.19 110.95 5.69L110.95 5.69L111.77 4.90Q112.30 5.30 112.60 5.81Q112.90 6.31 113.04 6.91L113.04 6.91Q113.54 5.93 114.54 5.38Q115.54 4.82 116.83 4.82ZM116.83 6.07L116.83 6.07Q116.23 6.07 115.63 6.26Q115.03 6.46 114.53 6.84Q114.02 7.22 113.66 7.80Q113.30 8.38 113.23 9.14L113.23 9.14L113.23 15.79Q113.66 15.84 114.50 15.92Q115.34 16.01 116.33 16.01L116.33 16.01Q117.29 16.01 118.07 15.65Q118.85 15.29 119.41 14.64Q119.98 13.99 120.28 13.08Q120.58 12.17 120.58 11.06L120.58 11.06Q120.58 10.10 120.34 9.19Q120.10 8.28 119.63 7.60Q119.16 6.91 118.46 6.49Q117.77 6.07 116.83 6.07ZM130.32 17.26L130.32 17.26Q128.98 17.26 127.87 16.80Q126.77 16.34 125.99 15.52Q125.21 14.69 124.78 13.56Q124.34 12.43 124.34 11.09L124.34 11.09Q124.34 9.74 124.78 8.60Q125.21 7.46 125.99 6.62Q126.77 5.78 127.87 5.30Q128.98 4.82 130.32 4.82L130.32 4.82Q131.66 4.82 132.76 5.29Q133.85 5.76 134.63 6.59Q135.41 7.42 135.84 8.56Q136.27 9.70 136.27 11.02L136.27 11.02Q136.27 12.36 135.84 13.51Q135.41 14.66 134.63 15.49Q133.85 16.32 132.76 16.79Q131.66 17.26 130.32 17.26ZM130.32 6.07L130.32 6.07Q129.26 6.07 128.42 6.43Q127.58 6.79 126.97 7.44Q126.36 8.09 126.04 9.00Q125.71 9.91 125.71 11.02L125.71 11.02Q125.71 12.14 126.04 13.07Q126.36 13.99 126.97 14.64Q127.58 15.29 128.42 15.65Q129.26 16.01 130.32 16.01L130.32 16.01Q131.35 16.01 132.20 15.64Q133.06 15.26 133.66 14.60Q134.26 13.94 134.58 13.02Q134.90 12.10 134.90 10.97L134.90 10.97Q134.90 9.86 134.58 8.96Q134.26 8.06 133.66 7.42Q133.06 6.77 132.20 6.42Q131.35 6.07 130.32 6.07ZM139.75 13.58L139.75 4.92Q139.75 3.96 139.51 3.26Q139.27 2.57 138.79 2.06L138.79 2.06L139.61 1.27Q140.06 1.61 140.34 2.03Q140.62 2.45 140.78 2.93Q140.95 3.41 141.01 3.91Q141.07 4.42 141.07 4.92L141.07 4.92L141.07 5.06L144.86 5.06L144.86 6.38L141.07 6.38L141.07 13.58Q141.07 14.28 141.22 14.75Q141.36 15.22 141.60 15.49Q141.84 15.77 142.18 15.89Q142.51 16.01 142.87 16.01L142.87 16.01Q143.30 16.01 143.78 15.88Q144.26 15.74 144.70 15.56Q145.13 15.38 145.48 15.18Q145.82 14.98 146.04 14.86L146.04 14.86L146.66 15.86Q146.47 16.01 146.05 16.25Q145.63 16.49 145.08 16.72Q144.53 16.94 143.89 17.10Q143.26 17.26 142.63 17.26L142.63 17.26Q142.06 17.26 141.54 17.08Q141.02 16.90 140.63 16.48Q140.23 16.06 139.99 15.35Q139.75 14.64 139.75 13.58L139.75 13.58ZM151.82 17.26L151.82 17.26Q151.01 17.26 150.30 17.04Q149.59 16.82 149.08 16.39Q148.56 15.96 148.27 15.31Q147.98 14.66 147.98 13.82L147.98 13.82Q147.98 12.82 148.43 12.14Q148.87 11.47 149.59 11.05Q150.31 10.63 151.21 10.46Q152.11 10.30 153.05 10.30L153.05 10.30L155.38 10.30L155.38 8.95Q155.38 7.46 154.78 6.77Q154.18 6.07 152.88 6.07L152.88 6.07Q151.92 6.07 150.94 6.48Q149.95 6.89 149.33 7.37L149.33 7.37L148.68 6.36Q149.38 5.74 150.52 5.28Q151.66 4.82 152.88 4.82L152.88 4.82Q154.90 4.82 155.80 5.84Q156.70 6.86 156.70 8.69L156.70 8.69L156.70 13.56Q156.70 15.41 157.63 16.42L157.63 16.42L156.82 17.21Q156.31 16.82 156.02 16.33Q155.74 15.84 155.57 15.29L155.57 15.29Q155.11 16.20 154.18 16.73Q153.24 17.26 151.82 17.26ZM151.82 16.01L151.82 16.01Q152.54 16.01 153.17 15.80Q153.79 15.60 154.28 15.22Q154.78 14.83 155.06 14.26Q155.35 13.68 155.38 12.94L155.38 12.94L155.38 11.52L153.05 11.52Q152.38 11.52 151.72 11.60Q151.06 11.69 150.53 11.94Q150 12.19 149.68 12.65Q149.35 13.10 149.35 13.82L149.35 13.82Q149.35 15.02 150 15.52Q150.65 16.01 151.82 16.01ZM159.43 14.35L159.43 14.35Q159.43 13.73 159.71 13.24Q159.98 12.74 160.45 12.41Q160.92 12.07 161.57 11.88Q162.22 11.69 162.98 11.66L162.98 11.66Q162.12 10.61 162.12 9.02L162.12 9.02Q162.12 8.04 162.46 7.26Q162.79 6.48 163.39 5.94Q163.99 5.40 164.82 5.11Q165.65 4.82 166.63 4.82L166.63 4.82Q167.09 4.82 167.50 4.88Q167.90 4.94 168.29 5.06L168.29 5.06L172.25 5.06L172.25 6.29L170.06 6.14Q170.57 6.67 170.86 7.39Q171.14 8.11 171.14 9.02L171.14 9.02Q171.14 10.01 170.81 10.78Q170.47 11.54 169.87 12.08Q169.27 12.62 168.44 12.91Q167.62 13.20 166.63 13.20L166.63 13.20Q165.29 13.20 164.28 12.70L164.28 12.70Q164.09 12.67 163.90 12.66Q163.70 12.65 163.49 12.65L163.49 12.65Q163.01 12.65 162.53 12.72Q162.05 12.79 161.65 12.98Q161.26 13.18 161.00 13.49Q160.75 13.80 160.75 14.28L160.75 14.28Q160.75 14.76 160.97 15.06Q161.18 15.36 161.57 15.52Q161.95 15.67 162.49 15.72Q163.03 15.77 163.66 15.77L163.66 15.77Q164.40 15.77 165.24 15.73Q166.08 15.70 166.97 15.70L166.97 15.70Q167.98 15.70 168.97 15.83Q169.97 15.96 170.76 16.33Q171.55 16.70 172.03 17.40Q172.51 18.10 172.51 19.20L172.51 19.20Q172.51 20.35 171.98 21.11Q171.46 21.86 170.62 22.33Q169.78 22.80 168.72 22.99Q167.66 23.18 166.61 23.18L166.61 23.18Q165.55 23.18 164.53 22.99Q163.51 22.80 162.70 22.33Q161.88 21.86 161.38 21.10Q160.87 20.33 160.87 19.20L160.87 19.20Q160.87 18.43 160.91 17.71Q160.94 16.99 160.99 16.58L160.99 16.58Q160.30 16.30 159.86 15.77Q159.43 15.24 159.43 14.35ZM164.04 17.04L164.04 17.04Q163.58 17.04 163.14 17.02Q162.70 16.99 162.26 16.92L162.26 16.92Q162.24 17.11 162.22 17.69Q162.19 18.26 162.19 19.20L162.19 19.20Q162.19 20.52 163.31 21.23Q164.42 21.94 166.61 21.94L166.61 21.94Q167.40 21.94 168.20 21.83Q169.01 21.72 169.68 21.41Q170.35 21.10 170.77 20.57Q171.19 20.04 171.19 19.20L171.19 19.20Q171.19 18.48 170.82 18.04Q170.45 17.59 169.85 17.36Q169.25 17.14 168.46 17.05Q167.66 16.97 166.85 16.97L166.85 16.97Q166.25 16.97 165.53 17.00Q164.81 17.04 164.04 17.04ZM166.61 6.07L166.61 6.07Q165.14 6.07 164.29 6.86Q163.44 7.66 163.44 9.00L163.44 9.00Q163.44 10.34 164.29 11.14Q165.14 11.93 166.61 11.93L166.61 11.93Q168.05 11.93 168.91 11.14Q169.78 10.34 169.78 9.00L169.78 9.00Q169.78 7.66 168.91 6.86Q168.05 6.07 166.61 6.07ZM178.70 12.22L175.87 12.22Q176.09 14.09 177.06 15.05Q178.03 16.01 179.90 16.01L179.90 16.01Q180.91 16.01 181.82 15.67Q182.74 15.34 183.65 14.86L183.65 14.86L184.27 15.86Q183.43 16.44 182.32 16.85Q181.20 17.26 179.90 17.26L179.90 17.26Q177.19 17.26 175.81 15.66Q174.43 14.06 174.43 11.09L174.43 11.09Q174.43 9.84 174.80 8.71Q175.18 7.58 175.86 6.72Q176.54 5.86 177.50 5.34Q178.46 4.82 179.64 4.82L179.64 4.82Q180.53 4.82 181.32 5.08Q182.11 5.33 182.70 5.80Q183.29 6.26 183.64 6.95Q183.98 7.63 183.98 8.47L183.98 8.47Q183.98 9.53 183.53 10.25Q183.07 10.97 182.34 11.40Q181.61 11.83 180.66 12.02Q179.71 12.22 178.70 12.22L178.70 12.22ZM179.64 6.00L179.64 6.00Q178.78 6.00 178.07 6.43Q177.36 6.86 176.86 7.56Q176.35 8.26 176.08 9.14Q175.80 10.03 175.80 10.97L175.80 10.97L178.70 10.97Q179.93 10.97 180.70 10.74Q181.46 10.51 181.90 10.15Q182.33 9.79 182.47 9.35Q182.62 8.90 182.62 8.47L182.62 8.47Q182.62 7.34 181.79 6.67Q180.96 6.00 179.64 6.00ZM193.73 5.02L193.73 6.26Q193.51 6.24 193.25 6.19L193.25 6.19Q193.03 6.14 192.76 6.12Q192.48 6.10 192.14 6.10L192.14 6.10Q191.16 6.10 190.37 6.72Q189.58 7.34 188.95 8.45L188.95 8.45L188.95 8.54L188.95 17.02L187.63 17.02L187.63 8.54Q187.63 7.58 187.39 6.89Q187.15 6.19 186.67 5.69L186.67 5.69L187.49 4.90Q188.04 5.30 188.35 5.84Q188.66 6.38 188.81 7.01L188.81 7.01Q189.43 5.90 190.27 5.36Q191.11 4.82 192.31 4.82L192.31 4.82Q192.58 4.82 192.84 4.85Q193.10 4.87 193.30 4.92L193.30 4.92Q193.54 4.97 193.73 5.02L193.73 5.02Z"></path><line x1="58.118399999999994" y1="33.184" x2="135.6096" y2="33.184" stroke="#92BA86" stroke-linecap="round"></line></svg>